<svg xmlns="http://www.w3.org/2000/svg" width="1024" height="1024" viewBox="0 0 1024 1024" version="1.1">
	<path d="M 485 0.976 C 483.625 1.430, 479.162 1.845, 475.082 1.900 C 471.002 1.955, 464.927 2.418, 461.582 2.930 C 458.237 3.441, 451.450 4.370, 446.500 4.993 C 435.263 6.409, 424.419 8.323, 412.500 10.994 C 403.188 13.082, 390.320 16.217, 388 16.963 C 386.625 17.406, 383.475 18.340, 381 19.040 C 364.514 23.700, 337.781 33.313, 325.205 39.102 C 321.743 40.696, 318.654 42, 318.341 42 C 317.277 42, 288.404 56.713, 279.931 61.573 C 248.226 79.758, 223.440 97.784, 196 122.613 C 139.142 174.061, 96.886 236.982, 69.819 310.500 C 66.485 319.555, 62.909 330.345, 61.035 337 C 60.338 339.475, 59.406 342.625, 58.963 344 C 57.971 347.083, 54.747 360.492, 52.111 372.500 C 41.567 420.522, 39.021 475.856, 45.047 526 C 47.894 549.690, 53.981 580.663, 59 597 C 59.422 598.375, 60.340 601.525, 61.038 604 C 63.161 611.520, 68.739 628.310, 71.540 635.610 C 76.797 649.311, 76.939 649.655, 80.891 658.295 C 82.601 662.032, 84 665.331, 84 665.625 C 84 666.278, 97.033 692.239, 99.777 697.052 C 107.926 711.345, 112.964 719.551, 120.886 731.438 C 125.899 738.959, 130 745.965, 130 747.007 C 130 748.050, 129.290 751.512, 128.421 754.701 C 127.553 757.891, 125.978 763.763, 124.921 767.750 C 123.025 774.907, 120.974 782.605, 116.931 797.750 C 115.793 802.012, 114.474 806.850, 114 808.500 C 113.198 811.292, 112.243 814.840, 107 834.500 C 105.900 838.625, 104.100 845.375, 103 849.500 C 101.900 853.625, 100.100 860.375, 99 864.500 C 97.900 868.625, 96.100 875.375, 95 879.500 C 93.900 883.625, 92.135 890.263, 91.079 894.250 C 90.022 898.237, 88.476 903.975, 87.644 907 C 84.157 919.670, 82.741 924.885, 80.921 931.750 C 78.399 941.268, 75.492 952.168, 72.920 961.750 C 69.404 974.849, 68.765 979.252, 69.401 986 C 71.049 1003.491, 80.687 1015.379, 99.297 1022.874 C 100.835 1023.493, 105.755 1024, 110.230 1024 C 131.146 1024, 146.858 1011.337, 152.417 990 C 154.007 983.898, 157.346 971.441, 159.653 963 C 160.481 959.975, 162.022 954.237, 163.079 950.250 C 164.135 946.263, 165.900 939.625, 167 935.500 C 168.100 931.375, 169.900 924.625, 171 920.500 C 172.100 916.375, 173.865 909.737, 174.921 905.750 C 175.978 901.762, 177.519 896.025, 178.347 893 C 179.174 889.975, 180.784 884.013, 181.925 879.750 C 183.066 875.487, 184.934 868.513, 186.075 864.250 C 187.216 859.987, 188.826 854.025, 189.653 851 C 192.508 840.558, 195.155 830.486, 196.157 826.250 C 196.710 823.913, 197.721 822, 198.405 822 C 199.088 822, 203.654 825.433, 208.551 829.628 C 256.085 870.353, 318.568 904.238, 377 920.981 C 387.238 923.915, 388.609 924.312, 391 925.044 C 396.410 926.699, 418.680 931.666, 426.500 932.961 C 430.350 933.598, 435.525 934.511, 438 934.988 C 440.475 935.465, 446.550 936.322, 451.500 936.894 C 456.450 937.465, 464.775 938.468, 470 939.123 C 482.598 940.701, 540.308 940.718, 554 939.148 C 608.420 932.909, 642.916 924.571, 687.087 906.981 C 717.545 894.853, 759.726 872.160, 780.105 856.939 C 782.637 855.048, 787.549 851.475, 791.019 849 C 794.489 846.525, 800.292 842.140, 803.914 839.256 C 807.536 836.371, 810.785 834.009, 811.133 834.006 C 811.943 833.998, 812.143 834.672, 818.921 860.250 C 819.978 864.237, 821.553 870.087, 822.421 873.250 C 823.290 876.413, 824.710 881.587, 825.579 884.750 C 826.447 887.913, 828.022 893.762, 829.079 897.750 C 830.135 901.737, 831.900 908.375, 833 912.500 C 834.100 916.625, 835.900 923.375, 837 927.500 C 838.100 931.625, 839.900 938.375, 841 942.500 C 842.100 946.625, 843.900 953.375, 845 957.500 C 846.100 961.625, 847.863 968.263, 848.919 972.250 C 855.846 998.429, 856.662 1000.668, 861.837 1007.689 C 865.650 1012.862, 874.165 1019.321, 879.500 1021.085 C 881.700 1021.813, 883.928 1022.766, 884.450 1023.204 C 885.896 1024.415, 903.525 1024.154, 906.703 1022.874 C 924.930 1015.534, 935.313 1002.858, 936.661 986.304 C 937.397 977.269, 936.537 973.266, 924.356 929 C 923.524 925.975, 921.978 920.237, 920.921 916.250 C 919.865 912.263, 918.100 905.625, 917 901.500 C 915.900 897.375, 914.100 890.625, 913 886.500 C 911.900 882.375, 910.135 875.737, 909.079 871.750 C 908.022 867.763, 906.413 861.800, 905.504 858.500 C 904.595 855.200, 902.722 848.225, 901.342 843 C 899.961 837.775, 898.450 832.150, 897.985 830.500 C 897.195 827.702, 896.116 823.685, 891 804.500 C 889.900 800.375, 888.100 793.625, 887 789.500 C 882.405 772.268, 881.086 767.394, 880.497 765.457 C 880.032 763.929, 881.619 761.159, 886.797 754.457 C 904.720 731.266, 927.915 692.669, 938.905 667.750 C 940.057 665.138, 941.859 661.087, 942.909 658.750 C 949.433 644.224, 958.915 618.335, 962.962 604 C 963.660 601.525, 964.594 598.375, 965.037 597 C 965.479 595.625, 966.753 590.675, 967.866 586 C 968.980 581.325, 970.641 574.350, 971.556 570.500 C 972.472 566.650, 973.660 560.800, 974.196 557.500 C 974.732 554.200, 975.566 549.250, 976.048 546.500 C 979.678 525.808, 981.061 509.249, 981.683 479 C 982.362 446, 981.091 426.597, 976.344 397.500 C 973.740 381.538, 973.041 377.575, 972.113 373.500 C 971.612 371.300, 970.727 367.250, 970.146 364.500 C 969.565 361.750, 968.171 356.125, 967.047 352 C 965.923 347.875, 964.145 341.350, 963.096 337.500 C 952.888 300.039, 928.718 247.988, 905.052 212.500 C 881.043 176.498, 853.851 145.120, 823.500 118.395 C 811.899 108.179, 796.218 95.559, 788.133 89.932 C 784.631 87.494, 779.681 84.015, 777.133 82.199 C 749.109 62.232, 699.894 37.338, 668 26.997 C 664.975 26.017, 660.700 24.540, 658.500 23.715 C 651.740 21.181, 633.244 15.870, 624 13.807 C 621.525 13.255, 617.925 12.452, 616 12.022 C 592.982 6.884, 573.975 3.944, 550 1.813 C 535.248 0.501, 488.274 -0.103, 485 0.976 M 305 137.951 C 291.861 140.437, 274.743 148.336, 262 157.792 C 254.412 163.422, 238.496 178.743, 231.657 187 C 227.453 192.075, 215.440 209.431, 211.930 215.500 C 208.600 221.258, 197.507 243.161, 196.185 246.591 C 189.574 263.731, 185.810 275.060, 182.657 287.299 C 172.167 328.015, 171.821 357.571, 181.496 386.395 C 189.180 409.283, 205.246 427.880, 227.400 439.531 C 231.305 441.584, 235.175 443.822, 236 444.503 C 238.254 446.365, 248.284 449.851, 257.702 452.047 C 267.285 454.282, 291.989 454.780, 301.174 452.924 C 322.996 448.514, 339.644 439.379, 355.070 423.348 C 368.248 409.655, 379.062 392.205, 386.895 372 C 388.708 367.325, 390.546 362.600, 390.981 361.500 C 391.416 360.400, 392.338 357.475, 393.030 355 C 393.722 352.525, 394.932 348.475, 395.719 346 C 396.506 343.525, 397.588 339.475, 398.124 337 C 398.660 334.525, 399.537 330.700, 400.075 328.500 C 403.845 313.066, 405.500 295.208, 405.496 270 C 405.492 247.144, 405.178 243.023, 402.104 225.500 C 400.285 215.133, 395.804 201.076, 390.860 190.225 C 389.287 186.774, 388 183.745, 388 183.494 C 388 183.244, 386.355 180.443, 384.345 177.269 C 371.975 157.741, 358.122 146.108, 340 140.031 C 332.739 137.596, 313.056 136.427, 305 137.951 M 754.324 154.555 C 752.577 155.448, 749.952 157.985, 748.490 160.194 C 746.201 163.653, 745.894 164.992, 746.275 169.855 C 746.518 172.960, 747.680 178.988, 748.858 183.250 C 750.036 187.512, 751.900 194.375, 753 198.500 C 754.100 202.625, 755.900 209.375, 757 213.500 C 758.100 217.625, 759.865 224.262, 760.921 228.250 C 761.978 232.238, 763.524 237.975, 764.356 241 C 767.273 251.601, 769.152 258.576, 771.492 267.500 C 772.790 272.450, 774.595 279.200, 775.504 282.500 C 777.057 288.134, 778.212 292.461, 782.918 310.250 C 783.972 314.238, 785.798 320.875, 786.975 325 C 788.152 329.125, 789.500 333.850, 789.971 335.500 C 793.303 347.179, 794 350.887, 794 356.936 C 794 362.986, 793.626 364.334, 790.750 368.637 C 780.863 383.432, 761.818 384.807, 750.192 371.566 C 746.504 367.365, 746.821 368.328, 737 331.500 C 731.751 311.815, 730.793 308.257, 729.864 305 C 729.316 303.075, 728.477 299.925, 728 298 C 727.523 296.075, 726.623 292.700, 726 290.500 C 725.377 288.300, 724.477 284.925, 724 283 C 723.523 281.075, 722.623 277.700, 722 275.500 C 721.377 273.300, 720.477 269.925, 720 268 C 719.523 266.075, 718.623 262.700, 718 260.500 C 717.377 258.300, 716.477 254.925, 716 253 C 715.523 251.075, 714.623 247.700, 714 245.500 C 712.882 241.555, 711.869 237.596, 710.094 230.250 C 709.088 226.086, 705.042 210.758, 702.504 201.500 C 701.599 198.200, 700.161 192.800, 699.309 189.500 C 696.618 179.081, 691.172 174, 682.698 174 C 677.802 174, 673.051 176.655, 669.592 181.324 C 666.948 184.892, 666.886 194.215, 669.457 201.500 C 670.427 204.250, 672.071 209.762, 673.111 213.750 C 674.890 220.576, 676.041 224.915, 681.069 243.750 C 682.207 248.012, 683.587 253.075, 684.136 255 C 684.684 256.925, 685.523 260.075, 686 262 C 686.477 263.925, 687.377 267.300, 688 269.500 C 688.623 271.700, 689.523 275.075, 690 277 C 690.477 278.925, 691.377 282.300, 692 284.500 C 692.623 286.700, 693.523 290.075, 694 292 C 694.477 293.925, 695.377 297.300, 696 299.500 C 696.623 301.700, 697.523 305.075, 698 307 C 698.477 308.925, 699.316 312.075, 699.864 314 C 700.413 315.925, 701.793 320.988, 702.931 325.250 C 706.974 340.395, 709.025 348.093, 710.921 355.250 C 711.978 359.238, 713.553 365.109, 714.421 368.299 C 716.311 375.239, 716.392 379.304, 714.735 384 C 711.875 392.106, 707.066 397.139, 698.703 400.782 C 691.169 404.063, 678.338 400.566, 672.181 393.554 C 668.075 388.877, 667.120 386.593, 664 374 C 663.523 372.075, 662.623 368.700, 662 366.500 C 661.377 364.300, 660.477 360.925, 660 359 C 659.523 357.075, 658.623 353.700, 658 351.500 C 657.377 349.300, 656.477 345.925, 656 344 C 655.523 342.075, 654.623 338.700, 654 336.500 C 653.377 334.300, 652.477 330.925, 652 329 C 651.523 327.075, 650.684 323.925, 650.136 322 C 649.207 318.743, 648.249 315.185, 643 295.500 C 637.751 275.815, 636.793 272.257, 635.864 269 C 635.316 267.075, 634.477 263.925, 634 262 C 633.523 260.075, 632.623 256.700, 632 254.500 C 631.377 252.300, 630.477 248.925, 630 247 C 629.523 245.075, 628.623 241.700, 628 239.500 C 627.377 237.300, 626.477 233.925, 626 232 C 625.523 230.075, 624.684 226.925, 624.136 225 C 623.587 223.075, 622.247 218.017, 621.157 213.760 C 617.719 200.331, 613.604 195.868, 604.586 195.787 C 596.419 195.714, 591.695 199.201, 589.391 207.004 C 588.478 210.097, 588.541 212.101, 589.695 216.701 C 590.495 219.891, 591.536 224.075, 592.009 226 C 592.481 227.925, 593.377 231.300, 594 233.500 C 594.623 235.700, 595.523 239.075, 596 241 C 596.477 242.925, 597.377 246.300, 598 248.500 C 598.623 250.700, 599.523 254.075, 600 256 C 600.477 257.925, 601.377 261.300, 602 263.500 C 602.623 265.700, 603.523 269.075, 604 271 C 604.477 272.925, 605.316 276.075, 605.864 278 C 606.793 281.257, 607.751 284.815, 613 304.500 C 618.249 324.185, 619.207 327.743, 620.136 331 C 620.684 332.925, 621.523 336.075, 622 338 C 622.477 339.925, 623.377 343.300, 624 345.500 C 624.623 347.700, 625.523 351.075, 626 353 C 626.477 354.925, 627.377 358.300, 628 360.500 C 628.623 362.700, 629.523 366.075, 630 368 C 630.477 369.925, 631.316 373.075, 631.864 375 C 632.413 376.925, 633.793 381.988, 634.931 386.250 C 638.974 401.395, 641.025 409.093, 642.921 416.250 C 649.826 442.304, 650.992 445.711, 656.847 456.963 C 667.525 477.481, 688.825 495.339, 711.500 502.783 C 732.374 509.636, 755.841 509.898, 774.064 503.480 C 782.208 500.612, 798.993 489.698, 807.562 481.698 C 827.014 463.537, 835.780 446.040, 838.991 418.964 C 840.249 408.357, 838.408 393.061, 834 377.500 C 833.377 375.300, 832.477 371.925, 832 370 C 831.523 368.075, 830.684 364.925, 830.136 363 C 829.207 359.743, 828.249 356.185, 823 336.500 C 821.900 332.375, 820.100 325.625, 819 321.500 C 817.900 317.375, 816.100 310.625, 815 306.500 C 813.900 302.375, 812.135 295.738, 811.079 291.750 C 810.022 287.762, 808.447 281.913, 807.579 278.750 C 804.296 266.791, 802.798 261.233, 800.508 252.500 C 799.210 247.550, 797.405 240.800, 796.496 237.500 C 795.587 234.200, 793.978 228.238, 792.921 224.250 C 791.865 220.262, 790.100 213.625, 789 209.500 C 787.900 205.375, 786.100 198.625, 785 194.500 C 783.900 190.375, 782.069 183.512, 780.931 179.250 C 779.793 174.988, 778.514 170.143, 778.089 168.485 C 776.671 162.951, 773.784 157.983, 770.718 155.799 C 766.738 152.965, 758.639 152.350, 754.324 154.555" stroke="none" fill="black" fill-rule="evenodd"/>
</svg>